# xmcd
#
# Track frame offsets: 
#        150
#        16766
#        36919
#        52998
#        70014
#        87388
#        105768
#        123772
#        142625
#        159677
#        178939
#        198196
#        213716
#        229562
#        247231
#        264313
#
# Disc length: 3758 seconds
#
# Revision: 0
# Processed by: cddbd v1.5.2PL0 Copyright (c) Steve Scherf et al.
# Submitted via: ExactAudioCopy v0.99pb4
#
DISCID=ce0eac10
DTITLE=TM Studios - HC200840
DYEAR=2008
DGENRE=Country
TTITLE0=Jack Ingram - That's A Man [Radio Edit]
TTITLE1=SingleTree - Is It Really Over Now [Radio Edit]
TTITLE2=Road Hammers - I've Got The Scars To Prove It
TTITLE3=Sebastian Bach - Battle With The Bottle [Single Version]
TTITLE4=Tracy Lawrence - You Can't Hide Redneck [Tempo Radio Edit]
TTITLE5=Rihanna - Rehab
TTITLE6=Myko - Late Nite Creep
TTITLE7=J, Ray - All I Feel [Radio Edit]
TTITLE8=Labelle Feat. Wyclef Jean - Roll Out [Album Version]
TTITLE9=Maysa - I Need A Man [Obama Mix]
TTITLE10=Maysa - I Need A Man [Album Mix]
TTITLE11=Sergio Mendes Feat. Fergie - The Look Of Love [Radio Edit]
TTITLE12=Gerald Albright - Walkin' Down Beale Street [Radio Edit]
TTITLE13=Duda, Walter - Rapless Rhapsody [Radio Edit]
TTITLE14=Kim Pensyl - Slap Happy [Album Version]
TTITLE15=Michael Lington - You And I
EXTD=
EXTT0=
EXTT1=
EXTT2=
EXTT3=
EXTT4=
EXTT5=
EXTT6=
EXTT7=
EXTT8=
EXTT9=
EXTT10=
EXTT11=
EXTT12=
EXTT13=
EXTT14=
EXTT15=
PLAYORDER=
